# xmcd
#
# Track frame offsets: 
#        151
#        16560
#        32509
#        47281
#        62361
#        78117
#        92224
#        104068
#        119423
#        136776
#        155984
#        168552
#        181036
#        200868
#        224503
#        240801
#        253197
#        268184
#        285765
#        298615
#
# Disc length: 4174 seconds
#
# Revision: 0
# Processed by: cddbd v1.5.1PL0 Copyright (c) Steve Scherf et al.
# Submitted via: ExactAudioCopy v0.95b1
#
DISCID=12104c14
DTITLE=邓丽君 - 天国的情人-DISK II
DYEAR=2005
DGENRE=Country
TTITLE0=香港之夜
TTITLE1=千言万语
TTITLE2=夜来香
TTITLE3=难忘的初恋情人
TTITLE4=一封情书
TTITLE5=想你想断肠
TTITLE6=梅花
TTITLE7=你怎么说
TTITLE8=偿还
TTITLE9=我只在乎你
TTITLE10=独上西楼
TTITLE11=南海姑娘
TTITLE12=恰似你的温柔
TTITLE13=不了情
TTITLE14=小村之恋
TTITLE15=人约黄昏后
TTITLE16=你可知道我爱谁
TTITLE17=爱像一首歌
TTITLE18=美酒加咖啡
TTITLE19=水上人
EXTD=
EXTT0=
EXTT1=
EXTT2=
EXTT3=
EXTT4=
EXTT5=
EXTT6=
EXTT7=
EXTT8=
EXTT9=
EXTT10=
EXTT11=
EXTT12=
EXTT13=
EXTT14=
EXTT15=
EXTT16=
EXTT17=
EXTT18=
EXTT19=
PLAYORDER=
